<?xml version="1.0" encoding="utf-8"?>
<!-- Generator: Adobe Illustrator 19.0.0, SVG Export Plug-In . SVG Version: 6.00 Build 0)  -->
<svg version="1.1" id="Layer_1" xmlns="http://www.w3.org/2000/svg" xmlns:xlink="http://www.w3.org/1999/xlink" x="0px" y="0px"
	 viewBox="0 0 37.2 40.1" style="enable-background:new 0 0 37.2 40.1;" xml:space="preserve">
<style type="text/css">
	.st0{fill:#000000;}
</style>
<path class="st0" d="M0,13.4C0,13.7,0.3,14,0.6,14h7.3v3.7H0.6C0.3,17.7,0,18,0,18.3v6.1C0,24.7,0.3,25,0.6,25h7.3v14.6
	c0,0.3,0.2,0.5,0.5,0.5h7c0.3,0,0.5-0.2,0.5-0.5V25.8c0-0.3,0.2-0.5,0.5-0.5H22c0.2,0,0.4,0.1,0.5,0.3l6.2,14.3
	c0.1,0.2,0.3,0.3,0.5,0.3h7.5c0.4,0,0.6-0.4,0.5-0.7l-6.2-14c-0.1-0.3,0-0.6,0.3-0.7c3-1.1,4.9-3.8,4.9-7.4V8.4
	c0-4.6-3.8-8.4-8.4-8.4H8.4C8.1,0,7.9,0.2,7.9,0.5v6.2H0.6C0.3,6.7,0,7,0,7.3V13.4z M15.9,8.1c0-0.3,0.2-0.5,0.5-0.5h9.4
	c1.3,0,2.4,1.1,2.4,2.4v5.4c0,1.3-1.1,2.4-2.4,2.4h-9.4c-0.3,0-0.5-0.2-0.5-0.5V8.1z"/>
</svg>
